<?xml version="1.0" encoding="UTF-8"?>
<svg id="Layer_2" data-name="Layer 2" xmlns="http://www.w3.org/2000/svg" viewBox="0 0 37.55 32.52">
  <defs>
    <style>
      .cls-1, .cls-2 {
        fill: #f26922;
      }

      .cls-2 {
        fill-rule: evenodd;
      }
    </style>
  </defs>
  <g id="Layer_1-2" data-name="Layer 1">
    <g>
      <path class="cls-1" d="m28.16,32.52H9.39L0,16.26,9.39,0h18.77l9.39,16.26-9.39,16.26Zm-17.77-1.73h16.77l8.39-14.52L27.16,1.73H10.39L2,16.26l8.39,14.52Z"/>
      <path class="cls-2" d="m26.28,19.77h0s0-4.98,0-4.98c.51-.46.37-1.04-.48-1.43l-5.72-2.68c-.51-.25-1.2-.35-1.87-.35s-1.36.12-1.87.35l-5.74,2.67c-1.02.48-1.04,1.27,0,1.75l1.89.88v4.04l.02.16c.07.23.76,2.21,5.68,2.21s5.63-1.98,5.68-2.21l.04-4.2,1.15-.53v4.34c-.26.35-.78,1.11-.78,2.01,0,1.22.9,2.17.94,2.22.11.12.26.19.44.19.16,0,.32-.07.44-.19.04-.04.94-.99.94-2.22.02-.94-.49-1.69-.76-2.03Zm-3.57.12c-.16.26-1.02,1.29-4.5,1.29s-4.36-1.06-4.5-1.29v-3.35l2.63,1.22c.51.25,1.2.35,1.87.35s1.36-.12,1.87-.35l2.63-1.22v3.35Zm-3.14-3.21c-.34.16-.85.25-1.36.25s-1.02-.09-1.36-.25l-5.26-2.45,5.26-2.45c.34-.16.85-.25,1.36-.25s1.02.09,1.36.25l5.24,2.45-5.24,2.45Z"/>
    </g>
  </g>
</svg>