<?xml version="1.0" encoding="UTF-8"?>
<svg id="Layer_2" data-name="Layer 2" xmlns="http://www.w3.org/2000/svg" viewBox="0 0 37.55 32.52">
  <defs>
    <style>
      .cls-1 {
        fill: #f26922;
      }
    </style>
  </defs>
  <g id="Layer_1-2" data-name="Layer 1">
    <g>
      <path class="cls-1" d="m28.16,32.52H9.39L0,16.26,9.39,0h18.77l9.39,16.26-9.39,16.26Zm-17.77-1.73h16.77l8.39-14.52L27.16,1.73H10.39L2,16.26l8.39,14.52Z"/>
      <g>
        <path class="cls-1" d="m15.73,18.51h6.35c.13,0,.24-.11.24-.24s-.11-.24-.24-.24h-6.35c-.13,0-.24.11-.24.24,0,.13.11.24.24.24Z"/>
        <path class="cls-1" d="m15.73,20.18h6.35c.13,0,.24-.11.24-.24s-.11-.24-.24-.24h-6.35c-.13,0-.24.11-.24.24,0,.13.11.24.24.24Z"/>
        <path class="cls-1" d="m15.73,21.85h6.35c.13,0,.24-.11.24-.24s-.11-.24-.24-.24h-6.35c-.13,0-.24.11-.24.24,0,.13.11.24.24.24Z"/>
        <path class="cls-1" d="m18.81,16.56h0s.06.02.09.02.06,0,.09-.02c.1-.04,2.35-1,2.77-2.87.26-1.15-.37-1.96-1.06-2.24-.65-.26-1.33-.06-1.8.5-.47-.56-1.15-.76-1.8-.5-.69.27-1.31,1.09-1.06,2.24.42,1.87,2.67,2.83,2.77,2.87Zm-1.54-4.67c.12-.05.26-.08.4-.08.35,0,.73.17,1.02.66.08.14.32.14.4,0,.41-.69,1-.75,1.42-.59.51.2.97.82.77,1.7-.32,1.43-1.99,2.3-2.4,2.5-.41-.19-2.08-1.06-2.4-2.5-.2-.88.26-1.49.77-1.7Z"/>
        <path class="cls-1" d="m25.36,6.94h-12.91c-.45,0-.82.37-.82.82v17.19c0,.45.37.82.82.82h12.91c.45,0,.82-.37.82-.82h0V7.75c0-.45-.37-.82-.82-.82Zm-9.75.47h6.59v.83h-6.59v-.83Zm0,1.3h6.59v.31h0c0,.33-.27.59-.61.59h-5.38c-.33,0-.61-.27-.61-.59v-.31Zm.61,1.37h0s5.38,0,5.38,0c.59,0,1.08-.48,1.08-1.06v-.31h1.62v15.13h-10.78v-15.13h1.62v.31c0,.59.48,1.06,1.08,1.06Zm9.49,14.87c0,.19-.16.35-.35.35h-12.91c-.19,0-.35-.16-.35-.35h0V7.75c0-.19.16-.35.35-.35h2.69v.83h-1.86c-.13,0-.24.11-.24.24v15.6c0,.13.11.24.24.24h11.25c.13,0,.24-.11.24-.24v-15.6c0-.13-.11-.24-.24-.24h-1.86v-.83h2.69c.19,0,.35.16.35.35v17.19Z"/>
      </g>
    </g>
  </g>
</svg>