<?xml version="1.0" encoding="UTF-8"?>
<svg id="Layer_2" data-name="Layer 2" xmlns="http://www.w3.org/2000/svg" viewBox="0 0 37.55 32.52">
  <defs>
    <style>
      .cls-1 {
        fill: #fff;
      }
    </style>
  </defs>
  <g id="Layer_1-2" data-name="Layer 1">
    <g>
      <g>
        <path class="cls-1" d="m27.04,16.84l-3.37-1.93,1-3.75-3.75,1-1.93-3.37-1.93,3.37-3.75-1,1,3.75-3.37,1.93,3.19,1.84-3.28,6.33,6.33-3.3,1.84,3.19,1.93-3.37,3.75,1-1-3.75,3.35-1.93Zm-3.32,4.73l-3.12-.84-1.62,2.8-1.57-2.73-4.98,2.62,2.59-4.98-2.73-1.57,2.8-1.62-.82-3.12,3.12.84,1.62-2.8,1.62,2.8,3.09-.84-.84,3.12,2.8,1.62-2.8,1.62.84,3.09Z"/>
        <g>
          <g>
            <circle class="cls-1" cx="17.06" cy="16.87" r=".71"/>
            <circle class="cls-1" cx="18.94" cy="16.87" r=".71"/>
          </g>
          <circle class="cls-1" cx="20.82" cy="16.87" r=".71"/>
        </g>
      </g>
      <path class="cls-1" d="m28.16,32.52H9.39L0,16.26,9.39,0h18.77l9.39,16.26-9.39,16.26Zm-17.77-1.73h16.77l8.39-14.52L27.16,1.73H10.39L2,16.26l8.39,14.52Z"/>
    </g>
  </g>
</svg>