<?xml version="1.0" encoding="UTF-8"?>
<svg id="Layer_2" data-name="Layer 2" xmlns="http://www.w3.org/2000/svg" viewBox="0 0 37.55 32.52">
  <defs>
    <style>
      .cls-1 {
        fill: #fff;
      }
    </style>
  </defs>
  <g id="Layer_1-2" data-name="Layer 1">
    <g>
      <path class="cls-1" d="m28.16,32.52H9.39L0,16.26,9.39,0h18.77l9.39,16.26-9.39,16.26Zm-17.77-1.73h16.77l8.39-14.52L27.16,1.73H10.39L2,16.26l8.39,14.52Z"/>
      <path class="cls-1" d="m25.14,11.77h-2.66v-.2c0-1.39-.74-2.67-1.94-3.36-1.2-.69-2.68-.69-3.88,0-1.2.69-1.94,1.98-1.94,3.36v.2h-2.66c-.34,0-.61.27-.61.61v9.81c0,.6.24,1.17.66,1.59.42.42.99.66,1.59.66h9.81c.6,0,1.17-.24,1.59-.66.42-.42.66-.99.66-1.59v-9.81c0-.34-.27-.61-.61-.61h0Zm-9.2-.2c0-.95.51-1.83,1.33-2.3s1.84-.47,2.66,0,1.33,1.35,1.33,2.3v.2h-5.31v-.2Zm8.58,10.63c0,.27-.11.53-.3.72-.19.19-.45.3-.72.3h-9.81c-.27,0-.53-.11-.72-.3-.19-.19-.3-.45-.3-.72v-9.2h2.04v1.84c0,.34.27.61.61.61s.61-.27.61-.61v-1.84h5.31v1.84c0,.34.27.61.61.61s.61-.27.61-.61v-1.84h2.04v9.2Z"/>
    </g>
  </g>
</svg>