<?xml version="1.0" encoding="UTF-8"?>
<svg id="Layer_2" data-name="Layer 2" xmlns="http://www.w3.org/2000/svg" viewBox="0 0 37.55 32.52">
  <defs>
    <style>
      .cls-1 {
        fill: #f26922;
      }
    </style>
  </defs>
  <g id="Layer_1-2" data-name="Layer 1">
    <g>
      <path class="cls-1" d="m28.16,32.52H9.39L0,16.26,9.39,0h18.77l9.39,16.26-9.39,16.26Zm-17.77-1.73h16.77l8.39-14.52L27.16,1.73H10.39L2,16.26l8.39,14.52Z"/>
      <path class="cls-1" d="m25.89,11.15c0-.09-.04-.18-.1-.24l-3.88-3.56c-.06-.05-.14-.08-.22-.08h-5.82s-.04,0-.06,0c0,0,0,0-.01,0h0s-.03,0-.04.01c0,0-.01,0-.02,0h0s-.02.01-.04.02c0,0,0,0-.01,0-.01,0-.03.02-.04.03h0s0,0,0,0l-3.88,3.56c-.07.06-.1.15-.1.24v11h-.65v.65h15.53v-.65h-.65v-11Zm-6.02-.32l-3.18-2.91h1.95l3.18,2.91h-1.95Zm.2.65h5.18v10.68h-5.18v-10.68Zm4.67-.65h-1.95l-3.18-2.91h1.95l3.18,2.91Zm-12.43.47l3.56-3.26,3.56,3.26v10.86h-3.24v-.97h1.94c.09,0,.17-.03.23-.09.06-.06.09-.14.09-.23v-8.74c0-.09-.04-.18-.11-.25l-2.26-1.94c-.12-.1-.3-.1-.42,0l-2.26,1.94c-.07.06-.11.15-.11.25v10.03h-.97v-10.86Zm5.5,2.77h-1.62v-3.18l1.62,1.39v1.79Zm-2.26,0h-1.62v-1.79l1.62-1.39v3.18Zm-1.62.65h1.62v2.59h-1.62v-2.59Zm2.26,0h1.62v2.59h-1.62v-2.59Zm1.62,3.24v2.59h-1.62v-2.59h1.62Zm-3.88,4.21v-4.21h1.62v4.21h-1.62Zm10.03-9.71h-2.59c-.09,0-.17.03-.23.09-.06.06-.09.14-.09.23v8.09c0,.09.03.17.09.23.06.06.14.09.23.09h2.59c.09,0,.17-.03.23-.09.06-.06.09-.14.09-.23v-8.09c0-.09-.03-.17-.09-.23-.06-.06-.14-.09-.23-.09h0Zm-.32.65v.97h-1.94s0-.97,0-.97h1.94Zm0,1.62v2.59h-1.94v-2.59h1.94Zm-1.94,5.82v-2.59h1.94v2.59h-1.94Z"/>
    </g>
  </g>
</svg>