<?xml version="1.0" encoding="UTF-8"?>
<svg id="Layer_2" data-name="Layer 2" xmlns="http://www.w3.org/2000/svg" viewBox="0 0 37.55 32.52">
  <defs>
    <style>
      .cls-1, .cls-2 {
        fill: #fff;
      }

      .cls-2 {
        fill-rule: evenodd;
      }
    </style>
  </defs>
  <g id="Layer_1-2" data-name="Layer 1">
    <g>
      <path class="cls-2" d="m25.15,9.75c-.13.01-.26.09-.32.21l-3.4,5.77h-5.54l1.45-2.09c.17-.24-.04-.64-.33-.64h-7.64c-.3,0-.5.4-.33.64l3.34,4.81v3h-.71c-.22,0-.41.2-.41.41v.71c0,.22.2.41.41.41h3.04c.22,0,.41-.2.41-.41v-.71c0-.22-.2-.41-.41-.41h-.71v-1.28c.7.52,1.57.95,2.62,1.21v1.06c0,.22.2.41.41.41h4.57c.22,0,.41-.2.41-.41v-1.06c1.82-.44,3.11-1.44,3.92-2.46.43-.54.73-1.09.91-1.59.18-.49.25-.91.16-1.3-.05-.17-.22-.31-.4-.31h-3.19l3.1-3.07c.12-.11.16-.3.09-.45-.06-.15-.22-.26-.39-.25-.11,0-.21.05-.28.12l-3.34,3.31,2.95-5.01c.15-.25-.06-.62-.35-.62-.01,0-.03,0-.04,0h0Zm-15,4.07h6.06l-2.97,4.28s-.05.09-.06.14c-.01-.05-.03-.1-.06-.14l-2.97-4.28Zm5.16,2.73h10.87c-.02.14-.06.32-.13.51-.14.4-.4.87-.78,1.35-.75.95-1.97,1.88-3.77,2.23-.18.04-.33.22-.33.4v.98h-3.75v-.98c0-.19-.15-.37-.33-.4-1.33-.26-2.35-.84-3.09-1.51,0,0,0,0-.01-.01v-.66l1.32-1.91Z"/>
      <path class="cls-1" d="m28.16,32.52H9.39L0,16.26,9.39,0h18.77l9.39,16.26-9.39,16.26Zm-17.77-1.73h16.77l8.39-14.52L27.16,1.73H10.39L2,16.26l8.39,14.52Z"/>
    </g>
  </g>
</svg>