<?xml version="1.0" encoding="UTF-8"?>
<svg id="Layer_2" data-name="Layer 2" xmlns="http://www.w3.org/2000/svg" viewBox="0 0 37.55 32.52">
  <defs>
    <style>
      .cls-1 {
        fill: #f26922;
      }
    </style>
  </defs>
  <g id="Layer_1-2" data-name="Layer 1">
    <g>
      <path class="cls-1" d="m28.16,32.52H9.39L0,16.26,9.39,0h18.77l9.39,16.26-9.39,16.26Zm-17.77-1.73h16.77l8.39-14.52L27.16,1.73H10.39L2,16.26l8.39,14.52Z"/>
      <path class="cls-1" d="m25.2,20.89l-1.28-2.71-2.27-2.27,3.25-3.25c.35-.35.35-.93,0-1.3l-1.6-1.6c-.35-.35-.95-.35-1.3,0l-3.25,3.25-2.81-2.81c-.77-.77-1.99-.77-2.74,0-.37.37-.58.86-.58,1.37s.21,1,.56,1.37l2.83,2.83-3.27,3.27c-.35.35-.35.93,0,1.3l1.6,1.6c.16.16.39.28.65.28s.46-.09.65-.28l3.27-3.27,2.27,2.27,2.71,1.28c.14.07.28.09.42.09.26,0,.51-.09.7-.3.3-.3.37-.74.19-1.11h0Zm-1.51-.19c-.16.16-.21.37-.19.56l-1.72-.81.39-1.25,1.25-.39.81,1.72c-.19-.05-.39.02-.56.19h0Zm-9.21-7.44l.63-.63,6.4,6.4-.3.95-6.73-6.73Zm8.49,4.96l-.97.3-6.38-6.4.63-.63,6.73,6.73Zm-2.81-5.61l.32.32c.07.07.16.09.26.09s.19-.02.26-.09c.14-.14.14-.35,0-.49l-.32-.32.77-.77.74.74c.07.07.16.09.26.09s.19-.02.26-.09c.14-.14.14-.35,0-.49l-.79-.77.58-.58c.09-.09.23-.09.3,0l1.6,1.6c.09.09.09.23,0,.3l-3.25,3.25-1.9-1.9.93-.9Zm-6.47-1.92c.49-.49,1.28-.49,1.76,0l.3.3-1.76,1.76-.3-.3c-.23-.23-.37-.56-.37-.88,0-.32.14-.65.37-.88h0Zm1.46,10.74c-.09.09-.23.09-.3,0l-1.6-1.6c-.09-.09-.09-.23,0-.3l.63-.63.74.74c.07.07.16.09.26.09s.19-.02.26-.09c.14-.14.14-.35,0-.49l-.74-.74.77-.77.32.32c.07.07.16.09.26.09s.19-.02.26-.09c.14-.14.14-.35,0-.49l-.32-.32.9-.9,1.9,1.9-3.32,3.27Z"/>
    </g>
  </g>
</svg>