<?xml version="1.0" encoding="UTF-8"?>
<svg id="Layer_2" data-name="Layer 2" xmlns="http://www.w3.org/2000/svg" viewBox="0 0 37.55 32.52">
  <defs>
    <style>
      .cls-1 {
        fill: #fff;
      }
    </style>
  </defs>
  <g id="Layer_1-2" data-name="Layer 1">
    <g>
      <path class="cls-1" d="m28.16,32.52H9.39L0,16.26,9.39,0h18.77l9.39,16.26-9.39,16.26Zm-17.77-1.73h16.77l8.39-14.52L27.16,1.73H10.39L2,16.26l8.39,14.52Z"/>
      <g>
        <path class="cls-1" d="m24.47,8.27h-9.39c-.78,0-1.41.63-1.41,1.41v7.04h-2.35c-.26,0-.47.21-.47.47v5.64c0,1.04.84,1.88,1.88,1.88.17,0,.32-.03.48-.07.16.04.31.07.46.07h10.33c1.04,0,1.88-.84,1.88-1.88v-13.15c0-.78-.63-1.41-1.41-1.41Zm-12.68,14.56v-5.17h1.88v5.17c0,.09-.02.18-.04.26,0,.01,0,.03-.01.04-.09.26-.3.48-.57.58,0,0,0,0,0,0-.1.03-.2.06-.31.06-.52,0-.94-.42-.94-.94h0Zm13.15,0c0,.52-.42.94-.94.94h-9.65s.05-.1.07-.14c.02-.03.03-.07.05-.1.03-.09.06-.17.08-.27,0-.03.01-.06.02-.09.02-.11.03-.22.03-.33v-13.15c0-.26.21-.47.47-.47h9.39c.26,0,.47.21.47.47v13.15Z"/>
        <path class="cls-1" d="m23.06,12.5h-5.64c-.26,0-.47-.21-.47-.47s.21-.47.47-.47h5.64c.26,0,.47.21.47.47s-.21.47-.47.47Z"/>
        <path class="cls-1" d="m23.06,14.85h-5.64c-.26,0-.47-.21-.47-.47s.21-.47.47-.47h5.64c.26,0,.47.21.47.47s-.21.47-.47.47Z"/>
        <path class="cls-1" d="m23.06,17.19h-5.64c-.26,0-.47-.21-.47-.47s.21-.47.47-.47h5.64c.26,0,.47.21.47.47s-.21.47-.47.47Z"/>
        <path class="cls-1" d="m23.06,19.54h-5.64c-.26,0-.47-.21-.47-.47s.21-.47.47-.47h5.64c.26,0,.47.21.47.47s-.21.47-.47.47Z"/>
        <path class="cls-1" d="m23.06,21.89h-5.64c-.26,0-.47-.21-.47-.47s.21-.47.47-.47h5.64c.26,0,.47.21.47.47s-.21.47-.47.47Z"/>
      </g>
    </g>
  </g>
</svg>