<?xml version="1.0" encoding="UTF-8"?>
<svg id="Layer_2" data-name="Layer 2" xmlns="http://www.w3.org/2000/svg" viewBox="0 0 37.55 32.52">
  <defs>
    <style>
      .cls-1, .cls-2 {
        fill: #fff;
      }

      .cls-2 {
        fill-rule: evenodd;
      }
    </style>
  </defs>
  <g id="Layer_1-2" data-name="Layer 1">
    <g>
      <path class="cls-1" d="m28.16,32.52H9.39L0,16.26,9.39,0h18.77l9.39,16.26-9.39,16.26Zm-17.77-1.73h16.77l8.39-14.52L27.16,1.73H10.39L2,16.26l8.39,14.52Z"/>
      <g>
        <path class="cls-2" d="m14.87,20.17c-.21,0-.42-.02-.63-.04-1.82-.23-3.12-1.32-3.74-3.17-.6-1.75-.48-3.76-.35-4.8.12-.93.32-1.41.71-1.64.49-.28,1.04-.04,1.76.26.67.3,1.52.65,2.64.79,1.13.14,2.05-.02,2.77-.12.76-.12,1.36-.23,1.76.16.32.32.41.83.3,1.76-.19,1.66-1.15,6.79-5.22,6.79m-.55-.9c3.72.44,4.67-4.04,4.92-5.98.11-.86-.02-1.01-.04-1.02-.09-.09-.63,0-1.02.07-.74.12-1.76.28-3.02.14-1.25-.16-2.2-.56-2.89-.86-.37-.16-.86-.37-.97-.32-.02.02-.18.12-.28.99-.12.97-.25,2.84.3,4.41.49,1.52,1.52,2.38,3,2.57"/>
        <path class="cls-2" d="m13.24,15.2c.34.04.63-.21.67-.55.04-.35-.19-.65-.51-.71-.34-.04-.63.21-.67.55-.05.35.18.65.51.71"/>
        <path class="cls-2" d="m16.22,15.55c.34.04.63-.21.67-.55.04-.35-.19-.65-.51-.71-.34-.04-.63.21-.67.55-.05.35.18.67.51.71"/>
        <path class="cls-2" d="m14.62,17.49c.9.11,1.71-.42,1.75-.6.02-.18-.76.16-1.67.05-.9-.11-1.59-.62-1.6-.44-.04.14.63.86,1.53.99"/>
        <path class="cls-2" d="m22.41,22.25c-1.57,0-2.87-.72-3.76-2.13-.12-.19-.07-.48.12-.6.19-.12.48-.07.6.12.79,1.23,1.92,1.82,3.33,1.73,3.74-.26,3.83-4.76,3.69-6.68-.05-.85-.21-.97-.23-.97-.11-.09-.62.11-.99.25-.71.26-1.67.62-2.93.71-.32.02-.63.02-.95.02-.25-.02-.42-.21-.42-.46.02-.25.23-.42.46-.42.28.02.56,0,.85-.02,1.15-.09,2.01-.39,2.7-.65.72-.26,1.3-.48,1.76-.18.37.25.56.72.62,1.64.12,1.71.14,7.28-4.5,7.62-.11.02-.23.04-.35.04"/>
        <path class="cls-2" d="m20.88,17.65c.34-.02.58-.32.56-.65-.02-.34-.32-.6-.63-.58-.34.02-.58.32-.56.65.02.35.3.6.63.58"/>
        <path class="cls-2" d="m23.88,17.44c.34-.02.58-.32.56-.65s-.32-.6-.63-.58c-.32.02-.58.32-.56.65.02.35.3.6.63.58"/>
        <path class="cls-2" d="m22.61,18.76c-.92.07-1.6.74-1.59.92.02.18.72-.3,1.64-.35.92-.07,1.67.3,1.66.12-.02-.18-.79-.74-1.71-.69"/>
      </g>
    </g>
  </g>
</svg>