<?xml version="1.0" encoding="UTF-8"?>
<svg id="Layer_2" data-name="Layer 2" xmlns="http://www.w3.org/2000/svg" viewBox="0 0 37.55 32.52">
  <defs>
    <style>
      .cls-1 {
        fill: #f26922;
      }
    </style>
  </defs>
  <g id="Layer_1-2" data-name="Layer 1">
    <g>
      <path class="cls-1" d="m28.16,32.52H9.39L0,16.26,9.39,0h18.77l9.39,16.26-9.39,16.26Zm-17.77-1.73h16.77l8.39-14.52L27.16,1.73H10.39L2,16.26l8.39,14.52Z"/>
      <path class="cls-1" d="m13.72,20.68c.21,0,.42-.04.62-.11l3.17-1.22-1.52,4.01h0c-.05.12-.03.26.04.37.07.11.2.17.33.17h2.13c.14,0,.27-.08.35-.2l3.69-6.38,5.35-2.12h0c.36-.14.65-.43.8-.79.15-.36.14-.77-.02-1.12-.16-.36-.45-.63-.82-.77-1.52-.55-3.2-.45-4.64.28l-2.55,1.26-4.74-1.74c-.11-.04-.24-.03-.35.03l-1.32.8c-.12.07-.19.2-.19.34,0,.14.07.27.18.34l2.98,1.92-3.41,1.68-2.08-1.44c-.86-.59-1.95-.72-2.92-.33l-1.02.4h0c-.13.05-.23.17-.25.31-.02.14.03.28.14.37l3.97,3.22c.56.46,1.26.71,1.98.71.03,0,.06,0,.09,0h0Zm4.54,2.42h-1.32l1.91-5.04,3.02-1.19-3.61,6.23Zm-3.05-9.59l.61-.37,3.84,1.41-1.61.79-2.84-1.83Zm-3.05,5.84l-3.44-2.79.38-.15c.72-.29,1.53-.19,2.17.25l2.28,1.57h0c.12.08.27.09.4.03l9.62-4.73c1.25-.63,2.7-.72,4.01-.25.25.09.41.32.42.59,0,.26-.16.5-.4.6l-4.42,1.75c.05-.15.02-.31-.1-.42-.11-.11-.28-.14-.42-.08l-4.25,1.68c-.1.04-.19.13-.23.23l-.28.73-3.84,1.48h0c-.11.04-.23.06-.35.06-.56.01-1.11-.18-1.54-.53h0Z"/>
    </g>
  </g>
</svg>