<?xml version="1.0" encoding="UTF-8"?>
<svg id="Layer_2" data-name="Layer 2" xmlns="http://www.w3.org/2000/svg" viewBox="0 0 37.55 32.52">
  <defs>
    <style>
      .cls-1, .cls-2 {
        fill: #fff;
      }

      .cls-2 {
        fill-rule: evenodd;
      }
    </style>
  </defs>
  <g id="Layer_1-2" data-name="Layer 1">
    <g>
      <path class="cls-1" d="m28.16,32.52H9.39L0,16.26,9.39,0h18.77l9.39,16.26-9.39,16.26Zm-17.77-1.73h16.77l8.39-14.52L27.16,1.73H10.39L2,16.26l8.39,14.52Z"/>
      <path class="cls-2" d="m22.27,15.06s-1.77-.22-3.5-.22-3.48.22-3.5.22l-.11-.88c.07,0,1.83-.23,3.61-.23s3.54.22,3.61.23l-.11.88h0Zm-1.72,2.45h2.22v-.89h-2.22v.89Zm-5.78,0h2.22v-.89h-2.22v.89Zm10.22-1.33h-.89v4c0,.12-.05.23-.13.31s-.2.13-.31.13h-.44c-.12,0-.23-.05-.31-.13s-.13-.2-.13-.31v-.89h-8v.89c0,.25-.2.44-.44.44h-.44c-.24,0-.44-.2-.44-.44v-4h-.89v-.89h1.72l.41-2.85c.01-.09.06-.18.12-.25s.15-.11.25-.13c.76-.12,2.25-.33,3.73-.33s2.97.2,3.73.33c.19.03.34.18.37.38l.41,2.85h1.72v.89Zm0-1.78h-.95l-.3-2.09c-.04-.28-.17-.54-.37-.75-.2-.2-.46-.34-.74-.38-.78-.13-2.33-.34-3.87-.34s-3.09.21-3.87.34c-.28.04-.54.18-.74.38-.2.2-.33.46-.37.75l-.3,2.09h-.95c-.49,0-.89.4-.89.89v.89c0,.49.4.89.89.89v3.11c0,.73.6,1.33,1.33,1.33h.44c.73,0,1.33-.6,1.33-1.33h6.22c0,.73.6,1.33,1.33,1.33h.44c.73,0,1.33-.6,1.33-1.33v-3.11c.49,0,.89-.4.89-.89v-.89c0-.49-.4-.89-.89-.89h0Z"/>
    </g>
  </g>
</svg>