<?xml version="1.0" encoding="UTF-8"?>
<svg id="Layer_2" data-name="Layer 2" xmlns="http://www.w3.org/2000/svg" viewBox="0 0 37.55 32.52">
  <defs>
    <style>
      .cls-1 {
        fill: #f26922;
      }
    </style>
  </defs>
  <g id="Layer_1-2" data-name="Layer 1">
    <g>
      <path class="cls-1" d="m28.16,32.52H9.39L0,16.26,9.39,0h18.77l9.39,16.26-9.39,16.26Zm-17.77-1.73h16.77l8.39-14.52L27.16,1.73H10.39L2,16.26l8.39,14.52Z"/>
      <path class="cls-1" d="m24.05,14.33c-.73-.07-1.45.26-1.88.86-.43.6-.51,1.38-.2,2.06.3.67.94,1.14,1.67,1.22v2.57c0,1.18-.63,2.26-1.65,2.85-1.02.59-2.27.59-3.29,0-1.02-.59-1.65-1.67-1.65-2.85v-3.66c1.18-.1,2.28-.64,3.09-1.51.8-.87,1.25-2.02,1.25-3.2v-3.35h-1.91v-1.07h-.82v2.96h.82v-1.07h1.11v2.53c-.1,1.33-.86,2.51-2.03,3.15-1.17.64-2.58.64-3.74,0-1.17-.64-1.93-1.82-2.03-3.15v-2.53h1.11v1.07h.82v-2.96s-.82,0-.82,0v1.07h-1.95v3.35c0,1.18.44,2.31,1.23,3.18.79.87,1.88,1.42,3.05,1.53v3.66c0,1.47.78,2.83,2.06,3.56,1.27.73,2.84.73,4.11,0,1.27-.73,2.06-2.09,2.06-3.56v-2.57c.73-.08,1.37-.54,1.67-1.22.3-.67.22-1.46-.2-2.06-.43-.6-1.14-.93-1.88-.86h0Zm0,3.35h0c-.33,0-.65-.13-.89-.37s-.37-.55-.37-.89.13-.65.37-.89.55-.37.89-.37.65.13.89.37c.24.24.37.55.37.89s-.13.65-.37.89c-.24.24-.55.37-.89.37h0Z"/>
    </g>
  </g>
</svg>
