<?xml version="1.0" encoding="UTF-8"?>
<svg id="Layer_2" data-name="Layer 2" xmlns="http://www.w3.org/2000/svg" viewBox="0 0 37.55 32.52">
  <defs>
    <style>
      .cls-1 {
        fill: #fff;
      }
    </style>
  </defs>
  <g id="Layer_1-2" data-name="Layer 1">
    <g>
      <path class="cls-1" d="m28.16,32.52H9.39L0,16.26,9.39,0h18.77l9.39,16.26-9.39,16.26Zm-17.77-1.73h16.77l8.39-14.52L27.16,1.73H10.39L2,16.26l8.39,14.52Z"/>
      <path class="cls-1" d="m24.41,11.25c-1.48-1.48-3.95-1.69-5.64-.53h0c-1.69-1.16-4.16-.95-5.64.53-.84.84-1.3,1.95-1.3,3.14s.46,2.3,1.3,3.14l4.57,4.57c.28.29.66.44,1.07.44s.78-.16,1.07-.44l4.57-4.57c.84-.84,1.3-1.95,1.3-3.14s-.46-2.3-1.3-3.14Zm-1.28,5l-4.36,4.36-4.36-4.36c-.49-.5-.77-1.16-.77-1.86s.27-1.36.77-1.86c.51-.51,1.19-.77,1.86-.77s1.35.26,1.86.77c.35.35.93.35,1.28,0,1.03-1.03,2.69-1.03,3.72,0,.49.5.77,1.16.77,1.86,0,.7-.27,1.36-.77,1.86Z"/>
    </g>
  </g>
</svg>