<?xml version="1.0" encoding="UTF-8"?>
<svg id="Layer_2" data-name="Layer 2" xmlns="http://www.w3.org/2000/svg" viewBox="0 0 37.55 32.52">
  <defs>
    <style>
      .cls-1 {
        fill: #fff;
      }
    </style>
  </defs>
  <g id="Layer_1-2" data-name="Layer 1">
    <g>
      <path class="cls-1" d="m28.16,32.52H9.39L0,16.26,9.39,0h18.77l9.39,16.26-9.39,16.26Zm-17.77-1.73h16.77l8.39-14.52L27.16,1.73H10.39L2,16.26l8.39,14.52Z"/>
      <path class="cls-1" d="m24.89,16.02h0c0-1.13-.3-2.19-.83-3.11.27-.4.42-.88.42-1.39,0-1.38-1.12-2.5-2.5-2.5-.78,0-1.48.36-1.94.92-.44-.1-.91-.16-1.38-.16-2.55,0-4.75,1.54-5.71,3.74-1.34.05-2.42,1.15-2.42,2.5s1.07,2.45,2.42,2.5c.97,2.2,3.16,3.74,5.71,3.74.47,0,.94-.06,1.38-.16.46.56,1.16.92,1.94.92,1.38,0,2.5-1.12,2.5-2.5,0-.52-.16-.99-.42-1.39.53-.92.83-1.98.83-3.11Zm-13.87-.19c0-1.08.87-1.95,1.95-1.95s1.95.87,1.95,1.95-.87,1.95-1.95,1.95-1.95-.87-1.95-1.95Zm8.49,5.12c-.28.05-.56.08-.86.08h0c-1.96,0-3.66-1.14-4.48-2.78.81-.42,1.36-1.26,1.36-2.23s-.55-1.81-1.36-2.23c.82-1.65,2.52-2.78,4.48-2.78.29,0,.58.03.86.08-.02.14-.04.28-.04.43,0,1.38,1.12,2.5,2.5,2.5.41,0,.8-.1,1.14-.28.35.68.55,1.45.55,2.27s-.2,1.59-.55,2.27c-.34-.17-.73-.28-1.14-.28-1.38,0-2.5,1.12-2.5,2.5,0,.15.02.29.04.43Zm2.56,1.6c-1.08,0-1.95-.87-1.95-1.95s.87-1.95,1.95-1.95,1.95.87,1.95,1.95-.87,1.95-1.95,1.95Zm0-9.1c-1.08,0-1.95-.87-1.95-1.95s.87-1.95,1.95-1.95,1.95.87,1.95,1.95-.87,1.95-1.95,1.95Z"/>
    </g>
  </g>
</svg>