<?xml version="1.0" encoding="UTF-8"?>
<svg id="Layer_2" data-name="Layer 2" xmlns="http://www.w3.org/2000/svg" viewBox="0 0 37.55 32.52">
  <defs>
    <style>
      .cls-1 {
        fill: #f26922;
      }
    </style>
  </defs>
  <g id="Layer_1-2" data-name="Layer 1">
    <g>
      <path class="cls-1" d="m28.16,32.52H9.39L0,16.26,9.39,0h18.77l9.39,16.26-9.39,16.26Zm-17.77-1.73h16.77l8.39-14.52L27.16,1.73H10.39L2,16.26l8.39,14.52Z"/>
      <path class="cls-1" d="m19.01,9.69c-1.79,0-3.5.71-4.77,1.98-1.27,1.27-1.98,2.98-1.98,4.77s.71,3.5,1.98,4.77c1.27,1.27,2.98,1.98,4.77,1.98s3.5-.71,4.77-1.98c1.27-1.27,1.98-2.98,1.98-4.77,0-1.18-.31-2.35-.9-3.37-.59-1.03-1.44-1.88-2.47-2.47-1.03-.59-2.19-.9-3.37-.9h0Zm0,12.14c-1.17,0-2.31-.39-3.24-1.09-.93-.71-1.61-1.7-1.93-2.83-.32-1.13-.27-2.33.16-3.42.42-1.09,1.19-2.02,2.18-2.64l.14.16c.3.3.48.71.51,1.13.02.43-.11.85-.38,1.18-.48.6-.72,1.35-.67,2.12.05.76.38,1.48.92,2.02l.32.32c.54.54,1.25.86,2.01.9.76.04,1.51-.2,2.1-.67.33-.27.75-.4,1.18-.38.43.02.83.2,1.13.51l.16.16c-.49.78-1.16,1.42-1.97,1.86-.8.44-1.71.68-2.62.67h0Zm5.17-3.85c-.54-.46-1.23-.71-1.94-.72-.71,0-1.4.23-1.96.67-.34.27-.76.4-1.19.37-.43-.03-.83-.21-1.13-.52l-.3-.3c-.3-.3-.48-.71-.51-1.13-.02-.43.11-.85.38-1.18.44-.56.68-1.25.66-1.97-.01-.71-.27-1.4-.74-1.94,1.26-.39,2.61-.3,3.81.24,1.2.54,2.16,1.5,2.7,2.7.54,1.2.63,2.55.24,3.81l-.03-.03Z"/>
    </g>
  </g>
</svg>