<?xml version="1.0" encoding="UTF-8"?>
<svg id="Layer_2" data-name="Layer 2" xmlns="http://www.w3.org/2000/svg" viewBox="0 0 37.55 32.52">
  <defs>
    <style>
      .cls-1 {
        fill: #fff;
      }
    </style>
  </defs>
  <g id="Layer_1-2" data-name="Layer 1">
    <g>
      <path class="cls-1" d="m28.16,32.52H9.39L0,16.26,9.39,0h18.77l9.39,16.26-9.39,16.26Zm-17.77-1.73h16.77l8.39-14.52L27.16,1.73H10.39L2,16.26l8.39,14.52Z"/>
      <path class="cls-1" d="m13.38,19.53c-.24.14-.39.4-.39.69,0,.44.35.79.77.79h9.58c.28,0,.53-.15.67-.4.21-.38.08-.86-.29-1.08l-4.79-2.8c-.23-.14-.52-.14-.76,0l-4.79,2.8Zm5.95-4.82c0,.27.14.51.37.65l4.8,2.8c1.11.65,1.5,2.1.86,3.23-.41.74-1.18,1.19-2.01,1.19h-9.58c-1.28,0-2.32-1.06-2.32-2.37,0-.85.45-1.64,1.17-2.06l4.8-2.8c.23-.13.37-.38.37-.65v-.85c0-.42.34-.75.75-.75h.02c.64,0,1.16-.53,1.16-1.18s-.52-1.18-1.16-1.18c-.48,0-.89.3-1.07.72-.11.27-.35.46-.64.46h-.1c-.52,0-.9-.52-.71-1.01.39-1.03,1.37-1.76,2.52-1.76,1.49,0,2.7,1.24,2.7,2.76,0,1.25-.81,2.31-1.93,2.65v.13Z"/>
    </g>
  </g>
</svg>