<?xml version="1.0" encoding="UTF-8"?>
<svg id="Layer_2" data-name="Layer 2" xmlns="http://www.w3.org/2000/svg" viewBox="0 0 37.55 32.52">
  <defs>
    <style>
      .cls-1 {
        fill: #f26922;
      }
    </style>
  </defs>
  <g id="Layer_1-2" data-name="Layer 1">
    <g>
      <path class="cls-1" d="m22.46,16.43h-.84v-4.55c0-.24-.16-.4-.4-.4h-.36v-4.55c0-.28-.28-.48-.52-.36l-3.51,1.24c-.16.04-.28.2-.28.36v3.31h-.36c-.24,0-.4.16-.4.4v4.55h-.84c-.24,0-.4.16-.4.4v7.15c0,.96.76,1.72,1.72,1.72h4.87c.96,0,1.72-.76,1.72-1.72v-7.15c0-.2-.16-.4-.4-.4h0Zm-5.11-7.98l2.71-.96v3.99h-2.71v-3.03Zm-.76,3.83h4.23v4.15h-4.23v-4.15Zm5.47,11.7c0,.52-.4.92-.92.92h-4.87c-.52,0-.92-.4-.92-.92v-6.75h6.71v6.75Z"/>
      <path class="cls-1" d="m28.16,32.52H9.39L0,16.26,9.39,0h18.77l9.39,16.26-9.39,16.26Zm-17.77-1.73h16.77l8.39-14.52L27.16,1.73H10.39L2,16.26l8.39,14.52Z"/>
    </g>
  </g>
</svg>