<?xml version="1.0" encoding="UTF-8"?>
<svg id="Layer_2" data-name="Layer 2" xmlns="http://www.w3.org/2000/svg" viewBox="0 0 37.55 32.52">
  <defs>
    <style>
      .cls-1 {
        fill: #f26922;
      }
    </style>
  </defs>
  <g id="Layer_1-2" data-name="Layer 1">
    <g>
      <g>
        <path class="cls-1" d="m27.38,22.46c-.08-.33-.37-.57-.72-.57-1.44,0-3.2-1.85-4.96-5.22-1.41-2.69-2.32-5.4-2.36-5.51,0-.03-.02-.05-.03-.08,0-.02-.02-.04-.04-.06-.03-.05-.06-.09-.09-.13-.02-.03-.04-.05-.06-.07-.01-.01-.03-.02-.05-.03-.03-.02-.06-.04-.06-.04-.02-.01-.07-.04-.13-.06-.02,0-.06-.02-.07-.02-.06-.01-.12-.02-.18-.02-.01,0-.08,0-.09,0-.06,0-.12.02-.16.04-.03.01-.06.03-.09.05-.04.02-.08.05-.12.09-.03.02-.05.04-.07.06-.02.02-.03.04-.05.06-.01.02-.02.03-.03.04-.01.02-.04.06-.08.15-.04.11-.96,2.84-2.36,5.51-1.76,3.36-3.53,5.22-4.96,5.22-.34,0-.64.23-.72.57-.08.33.08.67.39.83.18.09,1.8.87,4.42,1.33.04,0,.07.02.09.02,1.26.22,2.55.33,3.85.33,4.93,0,8.21-1.61,8.35-1.68.3-.15.46-.49.39-.83Zm-12.47.7c-.83-.15-1.55-.34-2.14-.51,1.59-1.05,3-3.13,4.15-5.33-.84,3.94-1.66,5.61-2.01,5.84Zm5.64-5.52c1.11,2.07,2.46,4,3.97,5-.46.14-1.01.29-1.64.42-.21-.07-1.18-.64-2.33-5.42Zm.57,5.71c-.82.1-1.65.15-2.47.15-.7,0-1.41-.04-2.11-.11.61-1.08,1.19-2.92,1.76-5.58.13-.59.25-1.22.37-1.87.12.59.25,1.21.4,1.83.63,2.67,1.31,4.51,2.05,5.58Z"/>
        <path class="cls-1" d="m18.46,9.51l3.53-1.18c.37-.12.37-.64,0-.76l-3.53-1.18c-.26-.09-.53.11-.53.38v2.35c0,.27.27.47.53.38Z"/>
      </g>
      <path class="cls-1" d="m28.16,32.52H9.39L0,16.26,9.39,0h18.77l9.39,16.26-9.39,16.26Zm-17.77-1.73h16.77l8.39-14.52L27.16,1.73H10.39L2,16.26l8.39,14.52Z"/>
    </g>
  </g>
</svg>