<?xml version="1.0" encoding="UTF-8"?>
<svg id="Layer_2" data-name="Layer 2" xmlns="http://www.w3.org/2000/svg" viewBox="0 0 37.55 32.52">
  <defs>
    <style>
      .cls-1 {
        fill: #f26922;
      }
    </style>
  </defs>
  <g id="Layer_1-2" data-name="Layer 1">
    <g>
      <g>
        <path class="cls-1" d="m10.94,9.85v8.73c0,.19.16.35.35.35h.91c.19,0,.35.16.35.35v1.8c0,.5.62.72.94.35l2.14-2.49s0,0,.01,0h.69c.19,0,.35-.16.35-.35h0c0-.19-.16-.35-.35-.35h-1.01s-.01,0-.01,0l-2.03,2.36s-.03,0-.03-.01v-2c0-.19-.16-.35-.35-.35h-.91c-.19,0-.35-.16-.35-.35v-6.99c0-.47.38-.85.85-.85h9.63c.47,0,.85.38.85.85v4.05c0,.19.16.35.35.35h0c.19,0,.35-.16.35-.35v-5.09c0-.29-.23-.52-.52-.52h-11.7c-.29,0-.52.23-.52.52h0Z"/>
        <path class="cls-1" d="m17.39,16.56v5.82c0,.31.25.57.57.57h4.88c.17,0,.32.07.43.2l1.49,1.73c.23.27.67.1.67-.25v-1.11c0-.31.25-.57.57-.57h0c.31,0,.57-.25.57-.57v-6.19c0-.11-.09-.2-.2-.2h-8.39c-.31,0-.57.25-.57.57Zm8.46,5.68h-1.13v1.51l-1.3-1.51h-5.33v-5.55h7.56c.11,0,.2.09.2.2v5.35Z"/>
        <path class="cls-1" d="m13.37,12.28h8.04c.19,0,.35.16.35.35h0c0,.19-.16.35-.35.35h-8.04c-.19,0-.35-.16-.35-.35h0c0-.19.16-.35.35-.35Z"/>
        <path class="cls-1" d="m13.37,13.71h5.36c.19,0,.35.16.35.35h0c0,.19-.16.35-.35.35h-5.36c-.19,0-.35-.16-.35-.35h0c0-.19.16-.35.35-.35Z"/>
        <path class="cls-1" d="m20.47,19.45c0,.33-.27.6-.6.6s-.6-.27-.6-.6.27-.6.6-.6.6.27.6.6"/>
        <path class="cls-1" d="m22.58,19.45c0,.33-.27.6-.6.6s-.6-.27-.6-.6.27-.6.6-.6.6.27.6.6"/>
        <path class="cls-1" d="m24.7,19.45c0,.33-.27.6-.6.6s-.6-.27-.6-.6.27-.6.6-.6.6.27.6.6"/>
      </g>
      <path class="cls-1" d="m28.16,32.52H9.39L0,16.26,9.39,0h18.77l9.39,16.26-9.39,16.26Zm-17.77-1.73h16.77l8.39-14.52L27.16,1.73H10.39L2,16.26l8.39,14.52Z"/>
    </g>
  </g>
</svg>