<?xml version="1.0" encoding="UTF-8"?>
<svg id="Layer_2" data-name="Layer 2" xmlns="http://www.w3.org/2000/svg" viewBox="0 0 37.55 32.52">
  <defs>
    <style>
      .cls-1 {
        fill: #fff;
      }
    </style>
  </defs>
  <g id="Layer_1-2" data-name="Layer 1">
    <g>
      <path class="cls-1" d="m28.16,32.52H9.39L0,16.26,9.39,0h18.77l9.39,16.26-9.39,16.26Zm-17.77-1.73h16.77l8.39-14.52L27.16,1.73H10.39L2,16.26l8.39,14.52Z"/>
      <path class="cls-1" d="m22.1,11.64c-.53,0-1.07.15-1.64.3-.43.11-.9.25-1.36.28,0-.04.02-.08.02-.11s0-.41-.15-.96c1.68-.15,2.98-1.56,2.98-3.28v-.47h-.47c-1.49,0-2.73.98-3.15,2.34-.3-.45-.72-.92-1.28-1.34-.21-.15-.51-.11-.66.09-.15.21-.11.51.09.66,1.66,1.24,1.7,2.9,1.7,2.96,0,.04,0,.08.02.11-.43-.06-.87-.17-1.28-.28-.57-.15-1.09-.3-1.64-.3-.64,0-1.17.21-1.6.64-1.34,1.34-2.07,3.11-2.07,4.99s.73,3.66,2.07,4.99c1.34,1.34,3.13,2.09,5.01,2.09s3.66-.73,4.99-2.07c1.34-1.34,2.07-3.11,2.07-4.99s-.73-3.67-2.07-4.99c-.43-.43-.94-.66-1.58-.66h0Zm-1.15-3.24c-.21.87-.89,1.56-1.77,1.77.21-.89.9-1.56,1.77-1.77Zm2.07,13.23c-1.15,1.15-2.69,1.79-4.33,1.79s-3.18-.64-4.33-1.79c-1.15-1.15-1.79-2.69-1.79-4.33s.64-3.17,1.79-4.33c.26-.26.55-.38.92-.38.41,0,.89.13,1.39.26.6.17,1.3.34,2.02.34s1.41-.19,2.02-.34c.51-.13.98-.26,1.39-.26.38,0,.68.11.92.38,1.15,1.15,1.79,2.69,1.79,4.33,0,1.64-.64,3.17-1.79,4.33Z"/>
    </g>
  </g>
</svg>