<?xml version="1.0" encoding="UTF-8"?>
<svg id="Layer_2" data-name="Layer 2" xmlns="http://www.w3.org/2000/svg" viewBox="0 0 99.05 59.23">
  <defs>
    <style>
      .cls-1, .cls-2 {
        fill: #fff;
      }

      .cls-2 {
        fill-rule: evenodd;
      }
    </style>
  </defs>
  <g id="Layer_1-2" data-name="Layer 1">
    <g>
      <path class="cls-1" d="m27.91,21.51c0,1.22.13,2.21.36,2.93.26.72.59,1.52,1.05,2.37.16.26.23.53.23.76,0,.33-.2.66-.63.99l-2.08,1.38c-.3.2-.59.3-.86.3-.33,0-.66-.16-.99-.46-.46-.49-.86-1.02-1.19-1.55-.33-.56-.66-1.19-1.02-1.94-2.57,3.03-5.8,4.55-9.69,4.55-2.77,0-4.97-.79-6.59-2.37-1.61-1.58-2.44-3.69-2.44-6.33,0-2.8.99-5.07,3-6.79,2.01-1.71,4.68-2.57,8.07-2.57,1.12,0,2.27.1,3.49.26s2.47.43,3.79.72v-2.4c0-2.5-.53-4.25-1.55-5.27-1.05-1.02-2.83-1.52-5.37-1.52-1.15,0-2.34.13-3.56.43s-2.4.66-3.56,1.12c-.53.23-.92.36-1.15.43-.23.07-.4.1-.53.1-.46,0-.69-.33-.69-1.02v-1.61c0-.53.07-.92.23-1.15s.46-.46.92-.69c1.15-.59,2.54-1.09,4.15-1.48,1.61-.43,3.33-.63,5.14-.63,3.92,0,6.79.89,8.63,2.67,1.81,1.78,2.73,4.48,2.73,8.1v10.67h.07Zm-13.37,5.01c1.09,0,2.21-.2,3.39-.59,1.19-.4,2.24-1.12,3.13-2.11.53-.63.92-1.32,1.12-2.11s.33-1.75.33-2.87v-1.38c-.96-.23-1.98-.43-3.03-.56s-2.08-.2-3.1-.2c-2.21,0-3.82.43-4.91,1.32-1.09.89-1.61,2.14-1.61,3.79,0,1.55.4,2.7,1.22,3.49.79.82,1.94,1.22,3.46,1.22Zm26.45,3.56c-.59,0-.99-.1-1.25-.33-.26-.2-.49-.66-.69-1.28L31.31,3c-.2-.66-.3-1.09-.3-1.32,0-.53.26-.82.79-.82h3.23c.63,0,1.05.1,1.28.33.26.2.46.66.66,1.28l5.53,21.81,5.14-21.81c.16-.66.36-1.09.63-1.28.26-.2.72-.33,1.32-.33h2.64c.63,0,1.05.1,1.32.33.26.2.49.66.63,1.28l5.2,22.07,5.7-22.07c.2-.66.43-1.09.66-1.28.26-.2.69-.33,1.28-.33h3.06c.53,0,.82.26.82.82,0,.16-.03.33-.07.53-.03.2-.1.46-.23.82l-7.94,25.46c-.2.66-.43,1.09-.69,1.28s-.69.33-1.25.33h-2.83c-.63,0-1.05-.1-1.32-.33s-.49-.66-.63-1.32l-5.11-21.25-5.07,21.22c-.16.66-.36,1.09-.63,1.32-.26.23-.72.33-1.32.33h-2.83Zm42.33.89c-1.71,0-3.43-.2-5.07-.59-1.65-.4-2.93-.82-3.79-1.32-.53-.3-.89-.63-1.02-.92-.13-.3-.2-.63-.2-.92v-1.68c0-.69.26-1.02.76-1.02.2,0,.4.03.59.1.2.07.49.2.82.33,1.12.49,2.34.89,3.62,1.15,1.32.26,2.6.4,3.92.4,2.08,0,3.69-.36,4.81-1.09,1.12-.72,1.71-1.78,1.71-3.13,0-.92-.3-1.68-.89-2.31-.59-.63-1.71-1.19-3.33-1.71l-4.78-1.48c-2.4-.76-4.18-1.88-5.27-3.36-1.09-1.45-1.65-3.06-1.65-4.78,0-1.38.3-2.6.89-3.66.59-1.05,1.38-1.98,2.37-2.7.99-.76,2.11-1.32,3.43-1.71,1.32-.4,2.7-.56,4.15-.56.72,0,1.48.03,2.21.13.76.1,1.45.23,2.14.36.66.16,1.28.33,1.88.53.59.2,1.05.4,1.38.59.46.26.79.53.99.82.2.26.3.63.3,1.09v1.55c0,.69-.26,1.05-.76,1.05-.26,0-.69-.13-1.25-.4-1.88-.86-3.99-1.28-6.33-1.28-1.88,0-3.36.3-4.38.92s-1.55,1.58-1.55,2.93c0,.92.33,1.71.99,2.34.66.63,1.88,1.25,3.62,1.81l4.68,1.48c2.37.76,4.08,1.81,5.11,3.16,1.02,1.35,1.52,2.9,1.52,4.61,0,1.42-.3,2.7-.86,3.82-.59,1.12-1.38,2.11-2.4,2.9-1.02.82-2.24,1.42-3.66,1.84-1.48.46-3.03.69-4.71.69Z"/>
      <g>
        <path class="cls-2" d="m89.55,46.98c-10.84,8.01-26.58,12.25-40.12,12.25-18.98,0-36.07-7.02-48.99-18.68-1.02-.92-.1-2.17,1.12-1.45,13.97,8.1,31.2,13.01,49.02,13.01,12.02,0,25.23-2.5,37.39-7.64,1.81-.82,3.36,1.19,1.58,2.5Z"/>
        <path class="cls-2" d="m94.06,41.84c-1.38-1.78-9.16-.86-12.68-.43-1.05.13-1.22-.79-.26-1.48,6.19-4.35,16.37-3.1,17.56-1.65,1.19,1.48-.33,11.66-6.13,16.54-.89.76-1.75.36-1.35-.63,1.32-3.26,4.25-10.61,2.87-12.35Z"/>
      </g>
    </g>
  </g>
</svg>