<?xml version="1.0" encoding="UTF-8"?>
<svg id="Layer_2" data-name="Layer 2" xmlns="http://www.w3.org/2000/svg" viewBox="0 0 175.12 49.89">
  <defs>
    <style>
      .cls-1 {
        fill: #fff;
      }
    </style>
  </defs>
  <g id="Layer_1-2" data-name="Layer 1">
    <g>
      <path class="cls-1" d="m42.95,45.44s-1.16-7.87-2.4-16.26c-.17-1.12-.33-2.25-.5-3.37-.46-3.08-.9-6.09-1.28-8.69-.1-.71-.2-1.38-.3-2.02-.25-1.7-.46-3.12-.61-4.12-.15-1-.23-1.59-.24-1.62,0-.06-.03-.12-.06-.16-.08-.14-.24-.22-.37-.23-.08,0-.78-.02-1.55-.03-.99-.02-2.09-.03-2.09-.03,0,0-.41-.4-.93-.91-.17-.17-.36-.35-.55-.54s-.38-.37-.57-.55c-.14-.13-.27-.26-.39-.38-.37-.36-.66-.65-.74-.73-.05-.05-.11-.08-.17-.11-.01,0-.03-.01-.04-.02-.06-.02-.12-.04-.19-.05h0c-.25-.04-.52,0-.66.05,0,0-.54.17-1.46.45-.15-.49-.38-1.1-.7-1.71-1.03-1.97-2.54-3.01-4.37-3.01h0c-.13,0-.25.01-.38.02-.05-.06-.11-.13-.17-.19C21.44.38,20.42-.03,19.2,0c-2.36.07-4.71,1.77-6.61,4.79-1.34,2.13-2.36,4.8-2.65,6.87-2.71.84-4.6,1.42-4.64,1.44-1.37.43-1.41.47-1.59,1.76-.14.97-3.71,28.62-3.71,28.62l29.96,5.18h0s0,0,0,0l12.99-3.23ZM22.46,7.79c-1.57.49-3.28,1.02-5,1.55.48-1.85,1.4-3.69,2.53-4.9.42-.45,1-.95,1.7-1.24.65,1.36.79,3.29.78,4.59Zm-3.21-6.22c.55-.01,1.02.11,1.42.37-.64.33-1.25.81-1.83,1.43-1.5,1.61-2.64,4.1-3.1,6.51-1.43.44-2.82.87-4.11,1.27.81-3.79,3.98-9.47,7.62-9.58Zm-4.59,21.58c.16,2.52,6.8,3.08,7.17,8.99.29,4.65-2.47,7.83-6.44,8.08-4.77.3-7.4-2.51-7.4-2.51l1.01-4.3s2.64,2,4.76,1.86c1.38-.09,1.88-1.21,1.83-2.01-.21-3.29-5.61-3.1-5.96-8.51-.29-4.55,2.7-9.16,9.3-9.58,2.54-.16,3.84.49,3.84.49l-1.51,5.64s-1.68-.77-3.68-.64c-2.92.18-2.96,2.03-2.93,2.49Zm9.37-15.84c-.02-1.19-.16-2.85-.72-4.29,1.79.34,2.67,2.36,3.04,3.57-.69.21-1.47.46-2.33.72Z"/>
      <g>
        <path id="s" class="cls-1" d="m60.55,27.69c-1.51-.82-2.28-1.51-2.28-2.45,0-1.2,1.08-1.98,2.75-1.98,1.95,0,3.7.82,3.7.82l1.38-4.21s-1.27-.99-4.99-.99c-5.18,0-8.77,2.97-8.77,7.14,0,2.37,1.68,4.17,3.91,5.46,1.81,1.03,2.45,1.76,2.45,2.84s-.9,2.02-2.58,2.02c-2.5,0-4.86-1.29-4.86-1.29l-1.46,4.22s2.18,1.46,5.85,1.46c5.33,0,9.16-2.62,9.16-7.35,0-2.54-1.94-4.34-4.26-5.68Z"/>
        <path id="h" class="cls-1" d="m81.79,18.83c-2.62,0-4.69,1.25-6.28,3.14l-.09-.04,2.28-11.91h-5.94l-5.76,30.32h5.94l1.98-10.37c.77-3.91,2.8-6.32,4.69-6.32,1.33,0,1.85.9,1.85,2.19,0,.82-.09,1.81-.26,2.62l-2.24,11.87h5.94l2.32-12.26c.26-1.29.43-2.84.43-3.87,0-3.35-1.76-5.38-4.86-5.38Z"/>
        <path id="o" class="cls-1" d="m100.07,18.83c-7.14,0-11.87,6.45-11.87,13.63,0,4.6,2.84,8.3,8.17,8.3,7.01,0,11.74-6.28,11.74-13.63,0-4.26-2.49-8.3-8.04-8.3Zm-2.92,17.38c-2.02,0-2.88-1.72-2.88-3.87,0-3.4,1.76-8.95,4.99-8.95,2.11,0,2.8,1.81,2.8,3.57,0,3.66-1.76,9.25-4.9,9.25Z"/>
        <path id="p" class="cls-1" d="m123.3,18.83c-4.01,0-6.28,3.53-6.28,3.53h-.09l.34-3.18h-5.25c-.26,2.15-.73,5.42-1.2,7.87l-4.13,21.72h5.94l1.63-8.77h.13s1.22.77,3.48.77c6.97,0,11.53-7.14,11.53-14.37,0-4-1.76-7.57-6.11-7.57Zm-5.68,17.46c-1.54,0-2.45-.86-2.45-.86l.99-5.55c.69-3.7,2.62-6.15,4.69-6.15,1.81,0,2.37,1.68,2.37,3.27,0,3.83-2.28,9.29-5.59,9.29Z"/>
        <path id="dot" class="cls-1" d="m137.88,10.32c-1.89,0-3.4,1.51-3.4,3.44,0,1.76,1.12,2.97,2.8,2.97h.09c1.85,0,3.44-1.25,3.48-3.44,0-1.72-1.16-2.97-2.97-2.97Z"/>
        <polygon id="i" class="cls-1" points="129.58 40.34 135.51 40.34 139.56 19.31 133.58 19.31 129.58 40.34"/>
        <path id="f" class="cls-1" d="m154.65,19.26h-4.13l.21-.99c.34-2.02,1.55-3.83,3.53-3.83,1.06,0,1.89.3,1.89.3l1.16-4.64s-1.03-.52-3.23-.52-4.21.6-5.81,1.98c-2.02,1.72-2.97,4.21-3.44,6.71l-.17.99h-2.75l-.86,4.47h2.75l-3.14,16.6h5.94l3.14-16.6h4.09l.82-4.47Z"/>
        <path id="y" class="cls-1" d="m168.93,19.31s-3.71,9.35-5.38,14.45h-.09c-.11-1.64-1.46-14.45-1.46-14.45h-6.24l3.57,19.31c.09.43.04.69-.13.99-.69,1.33-1.85,2.62-3.23,3.57-1.12.82-2.37,1.33-3.35,1.68l1.63,5.03c1.2-.26,3.7-1.25,5.81-3.23,2.71-2.54,5.2-6.45,7.78-11.78l7.27-15.57h-6.19Z"/>
      </g>
    </g>
  </g>
</svg>