<?xml version="1.0" encoding="UTF-8"?>
<svg id="Layer_2" data-name="Layer 2" xmlns="http://www.w3.org/2000/svg" viewBox="0 0 173.33 33.58">
  <defs>
    <style>
      .cls-1 {
        fill: #fff;
        fill-rule: evenodd;
      }
    </style>
  </defs>
  <g id="Layer_1-2" data-name="Layer 1">
    <g>
      <path class="cls-1" d="m117.84,15.27c.29-.09.65-.14.94-.14h4.85c1.82,0,4.68-.59,5.31-2.61.07-.23.11-.47.11-.7,0-.82-.47-1.54-1.1-2.03-.97-.75-2.3-.98-3.49-.98-3.56,0-6.04,3.18-6.61,6.46m-51.31,1.43c-.39.15-.8.21-1.21.2l-4.31-.03c-2.09-.02-4.93,1.07-5.45,3.33-.05.21-.07.41-.07.63,0,.26.04.51.1.76.61,2.19,3.37,3.2,5.42,3.2s4.83-1.03,5.43-3.22c.07-.24.1-.49.1-.74v-4.13Zm-26.59-7.89v16.01c.45-.16.95-.21,1.43-.21h1.46c4.38,0,8.27-3.36,8.27-7.85s-3.85-7.95-8.27-7.95h-2.89Zm126.33,17.87c-3.34,0-5.43-.82-7.47-3.41l-.05-.06,1.54-1.1.04.05c.42.53.86,1.06,1.39,1.48,1.28,1,2.94,1.13,4.5,1.13,2.45,0,5.17-.96,5.17-3.82,0-.46-.1-.89-.35-1.28-.87-1.38-3.5-1.89-4.98-2.24-2.91-.69-6.79-1.67-6.79-5.35s3.27-5.11,6.52-5.11c2.78,0,4.8,1.2,6.54,3.34l.05.06-1.54,1.1-.04-.05c-1.47-1.83-2.81-2.65-5.15-2.65-2.13,0-4.49.83-4.49,3.31,0,.48.11.93.37,1.34.89,1.4,3.52,1.92,5.03,2.28,2.85.68,6.76,1.71,6.76,5.31,0,3.95-3.52,5.66-7.06,5.66Zm-14.55-19.19c.45-.16.95-.21,1.43-.21h4.17v1.83h-4.17c-.64,0-1.43.25-1.43,1.01v9.04c.03,3.04,2.43,5.68,5.53,5.68h.07v1.83h-.07c-4.13,0-7.45-3.45-7.45-7.55V0h1.92v7.48Zm-4.71,19.19h-1.85v-12.15c0-3.06-2.39-5.68-5.49-5.68s-5.49,2.62-5.49,5.68v12.15h-1.92v-12.15c0-4.08,3.26-7.55,7.38-7.55s7.38,3.47,7.38,7.55v12.15Zm-22.56,0c-.91,0-1.8-.15-2.66-.46-3.95-1.39-6.04-5.36-6.04-9.4,0-4.87,3.53-9.85,8.7-9.85,2.44,0,5.35.91,6.27,3.42.17.46.25.94.25,1.42,0,.52-.09,1.03-.29,1.52-1.06,2.69-4.48,3.6-7.09,3.6h-4.88c-.64,0-.96.42-.96,1.05,0,2.01,1.17,4.05,2.68,5.32,1.13.95,2.52,1.55,4.02,1.55,2.3,0,3.9-.78,5.33-2.61l.04-.05,1.54,1.1-.05.06c-1.83,2.32-3.85,3.34-6.86,3.34Zm-24.49-15.89c1.29-2.34,3.78-3.81,6.45-3.81,4.12,0,7.45,3.46,7.45,7.55v12.15h-1.92v-12.15c0-3.06-2.39-5.68-5.49-5.68s-5.49,2.62-5.49,5.68v12.15h-1.92v-12.15c0-3.06-2.38-5.68-5.49-5.68s-5.49,2.62-5.49,5.68v12.15h-1.92v-12.15c0-4.08,3.26-7.55,7.38-7.55,2.66,0,5.17,1.49,6.45,3.81Zm-22.26,13.31l6.74-17.12h2l-8.59,21.76c-1.07,2.72-3.66,4.85-6.66,4.85h-.93v-1.77h.93c2.46,0,5.13-2.21,5.13-4.77,0-1-.38-2.6-.74-3.53l-6.53-16.55h2l6.26,15.92c.14.37.29.8.38,1.2Zm-16.7,2.58c-2.88,0-6.31-1.5-7.21-4.46-.13-.43-.2-.88-.2-1.33,0-.4.05-.8.16-1.18.83-3.03,4.33-4.61,7.25-4.61h4.31c.79,0,1.14-.42,1.14-1.22v-1.12c0-.3-.04-.6-.13-.89-.63-2.09-3.07-3.07-5.07-3.07s-3.68.98-4.97,2.61l-.04.05-1.54-1.1.05-.06c1.68-2.12,3.82-3.34,6.54-3.34s5.99,1.53,6.88,4.38c.14.46.22.93.22,1.41v8.12c0,.45-.07.9-.2,1.34-.9,2.94-4.3,4.45-7.18,4.45ZM38.02,6.97h4.81c5.34,0,10.23,4.26,10.23,9.72s-4.91,9.72-10.23,9.72h-1.46c-.84,0-1.43.18-1.43,1.08v6.1h-1.92V6.97Z"/>
      <path class="cls-1" d="m0,10.08C0,6.19,3.43,3.92,6.77,3.92s6.74,2.63,6.73,6.52c0,5.22.06,8.32.05,13.53,0,4.62,2.82,7.01,6.84,6.76,5.79-.36,10.39-5.5,10.4-11.89v-10.53c.02-2.23-2.03-3.61-3.92-3.61s-3.94,1.37-3.94,3.61l-.02,15.66c0,2.24-.43,4.03-1.65,5.48-1.07,1.28-2.78.55-2.69-.68.03-.5.27-.78.57-1.16.73-.91.93-1.82.93-3.63l.02-15.88c0-3.89,3.43-6.17,6.76-6.17s6.76,2.5,6.75,6.39v10.53c0,7.98-5.88,14.2-13.05,14.65-5.53.35-9.86-3.12-9.85-9.52,0-5.14-.02-8.52,0-13.67,0-2.23-2.04-3.61-3.93-3.61s-3.94,1.37-3.94,3.61c0,3.43.02,5.09.02,8.54,0,2.83.96,5.46,2.64,7.61,1.51,1.94,3.86,3.12,6.04,4.01.85.35,1.54,1.28,1.09,2.15-.26.51-.83.87-2,.48-2.54-.85-5.5-2.55-7.38-4.97C1.2,25.51.01,22.29.02,18.84.03,15.33,0,13.59,0,10.08"/>
    </g>
  </g>
</svg>