<?xml version="1.0" encoding="UTF-8"?>
<svg id="Layer_2" data-name="Layer 2" xmlns="http://www.w3.org/2000/svg" viewBox="0 0 61.66 109.53">
  <defs>
    <style>
      .cls-1 {
        fill: #fff;
      }
    </style>
  </defs>
  <g id="Layer_1-2" data-name="Layer 1">
    <g>
      <path class="cls-1" d="m60.6,4.73h-2.17l1.54-1.54c.41-.41.41-1.09,0-1.5-.41-.41-1.09-.41-1.5,0l-1.53,1.54V1.06c0-.59-.48-1.06-1.06-1.06s-1.06.47-1.06,1.06v2.17l-1.53-1.54c-.41-.41-1.09-.41-1.5,0-.41.41-.41,1.09,0,1.5l1.54,1.54h-2.17c-.59,0-1.06.47-1.06,1.06s.47,1.06,1.06,1.06h2.17l-1.54,1.54c-.41.41-.41,1.09,0,1.5.21.21.48.31.75.31s.54-.1.75-.31l1.53-1.54v2.17c0,.59.48,1.06,1.06,1.06s1.06-.47,1.06-1.06v-2.17l1.53,1.54c.21.21.48.31.75.31s.54-.1.75-.31c.41-.41.41-1.09,0-1.5l-1.54-1.54h2.17c.59,0,1.06-.47,1.06-1.06s-.48-1.06-1.06-1.06Z"/>
      <path class="cls-1" d="m49.92,9.71H1.71c-.46,0-.85.16-1.18.49-.33.33-.49.72-.49,1.18v48.12c0,.79.36,1.35,1.09,1.68.27.1.53.14.77.13.41-.02.78-.19,1.1-.52l22.82-22.83,21.65,21.65-4.77,4.77c-2.3-1.97-4.88-3.53-7.74-4.68-2.86-1.15-5.93-1.72-9.22-1.72-3.55,0-6.89.67-10.01,2.02-3.12,1.35-5.85,3.19-8.18,5.52-2.33,2.33-4.17,5.08-5.52,8.23-1.35,3.15-2.02,6.51-2.02,10.06,0,3.22.56,6.28,1.67,9.17,1.12,2.89,2.69,5.49,4.73,7.79l-5.91,5.82c-.33.33-.49.74-.49,1.23s.16.9.49,1.23c.33.33.72.49,1.18.49.39,0,.82-.16,1.28-.49l5.82-5.92c2.3,2.04,4.89,3.62,7.79,4.73,2.89,1.12,5.95,1.68,9.17,1.68,3.55,0,6.9-.67,10.06-2.02,3.16-1.35,5.9-3.19,8.24-5.52,2.33-2.33,4.17-5.06,5.52-8.18,1.35-3.12,2.02-6.46,2.02-10.01,0-3.28-.58-6.36-1.72-9.22-1.15-2.86-2.71-5.44-4.68-7.74l5.92-5.92c.26-.26.41-.57.47-.93.03-.15.06-.31.06-.49V11.39c0-.46-.17-.86-.49-1.18-.33-.33-.73-.49-1.18-.49ZM4.88,91.64c-.95-2.47-1.43-5.08-1.43-7.84,0-3.09.59-6,1.78-8.73,1.18-2.73,2.78-5.09,4.78-7.1,2-2,4.35-3.6,7.05-4.78,2.7-1.18,5.59-1.78,8.68-1.78,2.82,0,5.47.48,7.94,1.43,2.46.95,4.68,2.29,6.66,3.99l-31.55,31.45c-1.65-1.97-2.95-4.19-3.9-6.65Zm41.81-15.77c.95,2.46,1.43,5.11,1.43,7.94,0,3.09-.59,5.98-1.77,8.68-1.18,2.7-2.78,5.05-4.78,7.05-2.01,2-4.37,3.6-7.1,4.78-2.73,1.18-5.64,1.78-8.73,1.78-2.76,0-5.37-.48-7.84-1.43-2.46-.95-4.68-2.25-6.65-3.9l31.45-31.55c1.71,1.97,3.04,4.19,3.99,6.66Zm1.46-20.5l-19.92-19.92,19.92-19.82v39.73Zm-2.47-42.2l-19.87,19.87L5.94,13.17h39.73ZM3.48,15.63l19.92,19.82L3.48,55.37V15.63Z"/>
    </g>
  </g>
</svg>